<svg width="155" height="208" viewBox="0 0 155 208" fill="none" xmlns="http://www.w3.org/2000/svg">
<g clip-path="url(#clip0_1052_611)">
<path d="M101.15 0H71.6699V33.12H103.62C110.05 33.12 116.08 39.16 116.08 46.29V61.58H151.7V48.06C151.7 20.27 130.34 0.01 101.14 0.01L101.15 0Z" fill="white"/>
<path d="M103.97 87.59C77.63 87.24 35.62 94.33 35.62 73.33V59.77H0V71.21C0 99.35 21.71 118.55 50.56 119.65C76.93 120.36 118.95 113.22 118.95 134.23V160.96C118.95 168.06 112.88 174.13 106.49 174.13H71.68V207.25H103.98C133.18 207.25 154.57 186.95 154.57 159.16V136C154.57 107.9 132.47 88.3 103.98 87.6L103.97 87.59Z" fill="white"/>
</g>
<defs>
<clipPath id="clip0_1052_611">
<rect width="154.57" height="207.24" fill="white"/>
</clipPath>
</defs>
</svg>
