<svg width="100" height="100" viewBox="0 0 100 100" fill="none" xmlns="http://www.w3.org/2000/svg">
  <style>
    @keyframes brand-in {
      0%   { fill: #FF6A00; }
      100% { fill: #ffffff; }
    }
    .s {
      fill: #FF6A00;
      animation: brand-in 1.1s cubic-bezier(0.23, 1, 0.32, 1) 0.15s forwards;
    }
  </style>

  <!-- Black background -->
  <rect width="100" height="100" fill="#000000"/>

  <!-- S mark — scaled to fill 80×80 area centred in 100×100 -->
  <g transform="translate(20, 10) scale(0.386)">
    <path class="s" d="M101.15 0H71.6699V33.12H103.62C110.05 33.12 116.08 39.16 116.08 46.29V61.58H151.7V48.06C151.7 20.27 130.34 0.01 101.14 0.01L101.15 0Z"/>
    <path class="s" d="M103.97 87.59C77.63 87.24 35.62 94.33 35.62 73.33V59.77H0V71.21C0 99.35 21.71 118.55 50.56 119.65C76.93 120.36 118.95 113.22 118.95 134.23V160.96C118.95 168.06 112.88 174.13 106.49 174.13H71.68V207.25H103.98C133.18 207.25 154.57 186.95 154.57 159.16V136C154.57 107.9 132.47 88.3 103.98 87.6L103.97 87.59Z"/>
  </g>
</svg>
